<?xml version="1.0"?>
<svg xmlns="http://www.w3.org/2000/svg" height="40" aria-label="Import blueprint to My Home Assistant" style="border-radius:24px;width:auto" viewBox="0 0 592 96">
  <rect width="592" height="96" fill="#18BCF2" rx="48"/>
  <path fill="#fff" d="M42.55 60.2h4.59V36.75h-4.59Zm10.35 0h4.59V43.99l7.23 10.58 7.24-10.62V60.2h4.56V36.75h-4.56v.03l-.4-.03-6.84 10.12-6.83-10.12-.4.03v-.03H52.9Zm29.38 0h4.59v-7.77h4.49c4.72 0 8.07-3.29 8.07-7.87 0-4.59-3.48-7.88-8.44-7.84l-4.66.03h-4.05Zm8.61-19.26c2.27-.04 3.88 1.47 3.88 3.62 0 2.14-1.47 3.65-3.51 3.65h-4.39v-7.27Zm22.98 19.66c6.97 0 11.92-5.02 11.92-12.09 0-7.1-4.95-12.13-12.02-12.13-7.04 0-12 4.99-12 12.13 0 7.07 5 12.09 12.1 12.09m0-4.19c-4.36 0-7.41-3.28-7.41-7.9 0-4.66 3.02-7.94 7.31-7.94 4.32 0 7.33 3.28 7.33 7.94 0 4.62-2.98 7.9-7.23 7.9m16.31 3.79h4.59v-8.31h3.52l4.79 8.31h5.19l-5.42-9.11c2.71-1.21 4.48-3.69 4.48-6.77 0-4.45-3.48-7.64-8.44-7.6l-4.65.03h-4.06Zm8.51-19.26c2.28 0 3.89 1.37 3.89 3.38 0 1.98-1.61 3.38-3.65 3.38h-4.16v-6.76Zm18.33 19.26h4.59V40.94h7v-4.19h-18.63v4.19h7.04Zm23.91 0h9.02c4.69 0 7.77-2.41 7.77-6.7 0-2.65-1.24-4.42-3.42-5.53 1.64-1.17 2.61-2.78 2.61-4.55 0-4.43-3.21-6.7-8.04-6.7l-3.45.03h-4.49Zm7.68-19.8c2.21-.03 3.61 1.07 3.61 2.95s-1.27 2.95-3.25 2.95h-3.55v-5.9Zm.53 9.65c2.41-.03 3.89 1.17 3.89 3.08 0 1.81-1.34 3.02-3.52 3.02h-4.09v-6.1h.24Zm12.97 10.15h14.9v-4.19H206.7V36.75h-4.59Zm18.32-8.74c0 5.62 3.69 9.21 9.51 9.21 5.9 0 9.65-3.59 9.65-9.21V36.75H235v14.71c0 3.01-1.97 4.95-4.99 4.95-3.01 0-4.99-1.94-4.99-4.95V36.75h-4.59Zm24.59 8.74h14.97v-4.19h-10.38v-5.66h8.84v-4.09h-8.84v-5.32h10.25v-4.19h-14.84Zm20.4 0h4.59v-7.77h4.49c4.72 0 8.07-3.29 8.07-7.87 0-4.59-3.48-7.88-8.44-7.84l-4.66.03h-4.05Zm8.61-19.26c2.28-.04 3.89 1.47 3.89 3.62 0 2.14-1.48 3.65-3.52 3.65h-4.39v-7.27Zm12.26 19.26h4.59v-8.31h3.52l4.79 8.31h5.19l-5.43-9.11c2.72-1.21 4.49-3.69 4.49-6.77 0-4.45-3.48-7.64-8.44-7.6l-4.65.03h-4.06Zm8.51-19.26c2.28 0 3.89 1.37 3.89 3.38 0 1.98-1.61 3.38-3.65 3.38h-4.16v-6.76Zm13.77 19.26h4.59V36.75h-4.59Zm10.35 0 4.59.03V44.12l11.66 16.08h4.55V36.75h-4.55v15.81l-11.46-15.81h-4.79Zm31.52 0h4.59V40.94h7.01v-4.19h-18.63v4.19h7.03Zm28.88 0h4.59V40.94h7v-4.19h-18.62v4.19h7.03Zm26 .4c6.97 0 11.92-5.02 11.92-12.09 0-7.1-4.95-12.13-12.02-12.13-7.04 0-12 4.99-12 12.13 0 7.07 5 12.09 12.1 12.09m0-4.19c-4.36 0-7.41-3.28-7.41-7.9 0-4.66 3.02-7.94 7.31-7.94 4.32 0 7.33 3.28 7.33 7.94 0 4.62-2.98 7.9-7.23 7.9"/>
  <g style="transform:translate(95px,0)">
    <rect width="137" height="64" x="344" y="16" fill="#F2F4F9" rx="32"/>
    <path fill="#18BCF2" d="M394.419 37.047V60.5h-4.297V46.797L384.716 60.5h-4.157l-5.343-13.594V60.5h-4.188V37.047h4.188l7.422 18.36 7.484-18.36zm9.365 0 5.344 9.89 5.344-9.89h4.766l-7.969 14.14V60.5h-4.391v-9.312l-8.031-14.141zM457 60c0 1.65-1.35 3-3 3h-24c-1.65 0-3-1.35-3-3v-9c0-1.65.95-3.95 2.12-5.12l10.76-10.76a3 3 0 0 1 4.24 0l10.76 10.76c1.17 1.17 2.12 3.47 2.12 5.12z"/>
    <path fill="#F2F4F9" stroke="#F2F4F9" d="M442 45.5a2 2 0 1 0 0-4 2 2 0 0 0 0 4Z"/>
    <path fill="#F2F4F9" stroke="#F2F4F9" stroke-miterlimit="10" d="M449.5 53.5a2 2 0 1 0 0-4 2 2 0 0 0 0 4ZM434.5 57.5a2 2 0 1 0 0-4 2 2 0 0 0 0 4Z"/>
    <path fill="none" stroke="#F2F4F9" stroke-miterlimit="10" stroke-width="2.25" d="M442 43.48V63l-7.5-7.5M449.5 51.46l-7.41 7.41"/>
  </g>
</svg>
